<mxfile host="app.diagrams.net" modified="2021-06-16T17:56:03.035Z" agent="5.0 (Windows NT 10.0; Win64; x64) AppleWebKit/537.36 (KHTML, like Gecko) Chrome/91.0.4472.101 Safari/537.36 Edg/91.0.864.48" etag="OdYV2v1g-JfFvySbjFVd" version="14.7.10" type="github">
  <diagram id="CHS0SxAyRlWBCBUwEJBU" name="Page-1">
    <mxGraphModel dx="1563" dy="659" grid="1" gridSize="10" guides="1" tooltips="1" connect="1" arrows="1" fold="1" page="1" pageScale="1" pageWidth="850" pageHeight="1100" math="0" shadow="0">
      <root>
        <mxCell id="0" />
        <mxCell id="1" parent="0" />
        <mxCell id="xmnk4yBX3Lyd7reDGiqu-30" value="Reply Class" style="shape=umlLifeline;perimeter=lifelinePerimeter;container=1;collapsible=0;recursiveResize=0;rounded=0;shadow=0;strokeWidth=1;" vertex="1" parent="1">
          <mxGeometry x="345" y="230" width="100" height="370" as="geometry" />
        </mxCell>
        <mxCell id="xmnk4yBX3Lyd7reDGiqu-31" value="" style="points=[];perimeter=orthogonalPerimeter;rounded=0;shadow=0;strokeWidth=1;" vertex="1" parent="xmnk4yBX3Lyd7reDGiqu-30">
          <mxGeometry x="45" y="70" width="10" height="240" as="geometry" />
        </mxCell>
        <mxCell id="xmnk4yBX3Lyd7reDGiqu-32" value="dispatch" style="verticalAlign=bottom;startArrow=oval;endArrow=block;startSize=8;shadow=0;strokeWidth=1;" edge="1" parent="xmnk4yBX3Lyd7reDGiqu-30" target="xmnk4yBX3Lyd7reDGiqu-31">
          <mxGeometry relative="1" as="geometry">
            <mxPoint x="-135" y="70" as="sourcePoint" />
          </mxGeometry>
        </mxCell>
        <mxCell id="xmnk4yBX3Lyd7reDGiqu-33" value="" style="points=[];perimeter=orthogonalPerimeter;rounded=0;shadow=0;strokeWidth=1;" vertex="1" parent="xmnk4yBX3Lyd7reDGiqu-30">
          <mxGeometry x="50" y="120" width="10" height="80" as="geometry" />
        </mxCell>
        <mxCell id="xmnk4yBX3Lyd7reDGiqu-34" value="Forum API" style="shape=umlLifeline;perimeter=lifelinePerimeter;container=1;collapsible=0;recursiveResize=0;rounded=0;shadow=0;strokeWidth=1;" vertex="1" parent="1">
          <mxGeometry x="490" y="230" width="105" height="370" as="geometry" />
        </mxCell>
        <mxCell id="xmnk4yBX3Lyd7reDGiqu-35" value="" style="points=[];perimeter=orthogonalPerimeter;rounded=0;shadow=0;strokeWidth=1;" vertex="1" parent="xmnk4yBX3Lyd7reDGiqu-34">
          <mxGeometry x="45" y="80" width="10" height="160" as="geometry" />
        </mxCell>
        <mxCell id="xmnk4yBX3Lyd7reDGiqu-36" value="Success" style="verticalAlign=bottom;endArrow=open;dashed=1;endSize=8;exitX=0;exitY=0.95;shadow=0;strokeWidth=1;" edge="1" parent="1" source="xmnk4yBX3Lyd7reDGiqu-35" target="xmnk4yBX3Lyd7reDGiqu-31">
          <mxGeometry relative="1" as="geometry">
            <mxPoint x="495" y="386" as="targetPoint" />
          </mxGeometry>
        </mxCell>
        <mxCell id="xmnk4yBX3Lyd7reDGiqu-37" value="Dispatch for Moderation" style="verticalAlign=bottom;endArrow=block;entryX=0;entryY=0;shadow=0;strokeWidth=1;" edge="1" parent="1" source="xmnk4yBX3Lyd7reDGiqu-31" target="xmnk4yBX3Lyd7reDGiqu-35">
          <mxGeometry relative="1" as="geometry">
            <mxPoint x="495" y="310" as="sourcePoint" />
          </mxGeometry>
        </mxCell>
        <mxCell id="xmnk4yBX3Lyd7reDGiqu-38" value="Callback Due to Fail" style="verticalAlign=bottom;endArrow=block;entryX=1;entryY=0;shadow=0;strokeWidth=1;" edge="1" parent="1" source="xmnk4yBX3Lyd7reDGiqu-35" target="xmnk4yBX3Lyd7reDGiqu-33">
          <mxGeometry relative="1" as="geometry">
            <mxPoint x="460" y="350" as="sourcePoint" />
          </mxGeometry>
        </mxCell>
        <mxCell id="xmnk4yBX3Lyd7reDGiqu-39" value="False" style="verticalAlign=bottom;endArrow=open;dashed=1;endSize=8;exitX=1;exitY=0.95;shadow=0;strokeWidth=1;" edge="1" parent="1" source="xmnk4yBX3Lyd7reDGiqu-33" target="xmnk4yBX3Lyd7reDGiqu-35">
          <mxGeometry relative="1" as="geometry">
            <mxPoint x="460" y="407" as="targetPoint" />
          </mxGeometry>
        </mxCell>
        <mxCell id="xmnk4yBX3Lyd7reDGiqu-40" value="Create Reply" style="text;html=1;strokeColor=none;fillColor=none;align=center;verticalAlign=middle;whiteSpace=wrap;rounded=0;" vertex="1" parent="1">
          <mxGeometry x="80" y="140" width="40" height="20" as="geometry" />
        </mxCell>
        <mxCell id="xmnk4yBX3Lyd7reDGiqu-41" value="Admin" style="shape=umlActor;verticalLabelPosition=bottom;verticalAlign=top;html=1;outlineConnect=0;" vertex="1" parent="1">
          <mxGeometry x="85" y="200" width="30" height="60" as="geometry" />
        </mxCell>
        <mxCell id="xmnk4yBX3Lyd7reDGiqu-42" value="Client" style="shape=umlActor;verticalLabelPosition=bottom;verticalAlign=top;html=1;outlineConnect=0;" vertex="1" parent="1">
          <mxGeometry x="190" y="200" width="30" height="60" as="geometry" />
        </mxCell>
        <mxCell id="xmnk4yBX3Lyd7reDGiqu-43" value="Database API" style="shape=umlLifeline;perimeter=lifelinePerimeter;container=1;collapsible=0;recursiveResize=0;rounded=0;shadow=0;strokeWidth=1;" vertex="1" parent="1">
          <mxGeometry x="625" y="230" width="105" height="370" as="geometry" />
        </mxCell>
        <mxCell id="xmnk4yBX3Lyd7reDGiqu-44" value="" style="points=[];perimeter=orthogonalPerimeter;rounded=0;shadow=0;strokeWidth=1;" vertex="1" parent="xmnk4yBX3Lyd7reDGiqu-43">
          <mxGeometry x="45" y="70" width="10" height="240" as="geometry" />
        </mxCell>
        <mxCell id="xmnk4yBX3Lyd7reDGiqu-45" value="" style="points=[];perimeter=orthogonalPerimeter;rounded=0;shadow=0;strokeWidth=1;" vertex="1" parent="xmnk4yBX3Lyd7reDGiqu-43">
          <mxGeometry x="50" y="120" width="10" height="80" as="geometry" />
        </mxCell>
        <mxCell id="xmnk4yBX3Lyd7reDGiqu-46" value="" style="endArrow=classic;html=1;" edge="1" parent="xmnk4yBX3Lyd7reDGiqu-43">
          <mxGeometry width="50" height="50" relative="1" as="geometry">
            <mxPoint x="55" y="82" as="sourcePoint" />
            <mxPoint x="163" y="82" as="targetPoint" />
          </mxGeometry>
        </mxCell>
        <mxCell id="xmnk4yBX3Lyd7reDGiqu-47" value="Retrigger Axios" style="text;html=1;strokeColor=none;fillColor=none;align=center;verticalAlign=middle;whiteSpace=wrap;rounded=0;" vertex="1" parent="xmnk4yBX3Lyd7reDGiqu-43">
          <mxGeometry x="95" y="50" width="40" height="20" as="geometry" />
        </mxCell>
        <mxCell id="xmnk4yBX3Lyd7reDGiqu-48" value="Regenerated Page" style="shape=umlLifeline;perimeter=lifelinePerimeter;container=1;collapsible=0;recursiveResize=0;rounded=0;shadow=0;strokeWidth=1;" vertex="1" parent="1">
          <mxGeometry x="745" y="230" width="100" height="370" as="geometry" />
        </mxCell>
        <mxCell id="xmnk4yBX3Lyd7reDGiqu-49" value="" style="points=[];perimeter=orthogonalPerimeter;rounded=0;shadow=0;strokeWidth=1;" vertex="1" parent="xmnk4yBX3Lyd7reDGiqu-48">
          <mxGeometry x="45" y="70" width="10" height="240" as="geometry" />
        </mxCell>
        <mxCell id="xmnk4yBX3Lyd7reDGiqu-50" value="" style="points=[];perimeter=orthogonalPerimeter;rounded=0;shadow=0;strokeWidth=1;" vertex="1" parent="xmnk4yBX3Lyd7reDGiqu-48">
          <mxGeometry x="50" y="120" width="10" height="80" as="geometry" />
        </mxCell>
        <mxCell id="xmnk4yBX3Lyd7reDGiqu-51" value="" style="endArrow=none;dashed=1;html=1;dashPattern=1 3;strokeWidth=2;" edge="1" parent="1">
          <mxGeometry width="50" height="50" relative="1" as="geometry">
            <mxPoint x="100" y="600" as="sourcePoint" />
            <mxPoint x="100" y="280" as="targetPoint" />
          </mxGeometry>
        </mxCell>
        <mxCell id="xmnk4yBX3Lyd7reDGiqu-52" value="" style="endArrow=none;dashed=1;html=1;dashPattern=1 3;strokeWidth=2;" edge="1" parent="1">
          <mxGeometry width="50" height="50" relative="1" as="geometry">
            <mxPoint x="205" y="600" as="sourcePoint" />
            <mxPoint x="205" y="280" as="targetPoint" />
          </mxGeometry>
        </mxCell>
        <mxCell id="xmnk4yBX3Lyd7reDGiqu-53" value="Rewrite" style="verticalAlign=bottom;endArrow=block;entryX=1;entryY=0;shadow=0;strokeWidth=1;" edge="1" parent="1">
          <mxGeometry relative="1" as="geometry">
            <mxPoint x="389" y="350" as="sourcePoint" />
            <mxPoint x="200" y="350" as="targetPoint" />
          </mxGeometry>
        </mxCell>
        <mxCell id="xmnk4yBX3Lyd7reDGiqu-54" value="" style="endArrow=classic;html=1;" edge="1" parent="1" target="xmnk4yBX3Lyd7reDGiqu-43">
          <mxGeometry width="50" height="50" relative="1" as="geometry">
            <mxPoint x="539" y="320" as="sourcePoint" />
            <mxPoint x="590" y="330" as="targetPoint" />
            <Array as="points">
              <mxPoint x="610" y="320" />
            </Array>
          </mxGeometry>
        </mxCell>
        <mxCell id="xmnk4yBX3Lyd7reDGiqu-55" value="Log to JSON Response" style="text;html=1;strokeColor=none;fillColor=none;align=center;verticalAlign=middle;whiteSpace=wrap;rounded=0;" vertex="1" parent="1">
          <mxGeometry x="580" y="290" width="80" height="20" as="geometry" />
        </mxCell>
        <mxCell id="xmnk4yBX3Lyd7reDGiqu-56" value="dispatch" style="verticalAlign=bottom;startArrow=oval;endArrow=block;startSize=8;shadow=0;strokeWidth=1;" edge="1" parent="1" target="xmnk4yBX3Lyd7reDGiqu-30">
          <mxGeometry relative="1" as="geometry">
            <mxPoint x="100" y="480" as="sourcePoint" />
            <mxPoint x="350" y="476" as="targetPoint" />
          </mxGeometry>
        </mxCell>
        <mxCell id="xmnk4yBX3Lyd7reDGiqu-58" value="Sudo check" style="text;html=1;strokeColor=none;fillColor=none;align=center;verticalAlign=middle;whiteSpace=wrap;rounded=0;" vertex="1" parent="1">
          <mxGeometry x="595" y="450" width="40" height="20" as="geometry" />
        </mxCell>
        <mxCell id="xmnk4yBX3Lyd7reDGiqu-61" value="Flag" style="verticalAlign=bottom;endArrow=open;dashed=1;endSize=8;exitX=1;exitY=0.95;shadow=0;strokeWidth=1;entryX=0.005;entryY=0.873;entryDx=0;entryDy=0;entryPerimeter=0;" edge="1" parent="1" target="xmnk4yBX3Lyd7reDGiqu-44">
          <mxGeometry relative="1" as="geometry">
            <mxPoint x="660" y="510" as="targetPoint" />
            <mxPoint x="400" y="510" as="sourcePoint" />
          </mxGeometry>
        </mxCell>
        <mxCell id="xmnk4yBX3Lyd7reDGiqu-62" value="Success" style="verticalAlign=bottom;endArrow=open;dashed=1;endSize=8;exitX=0;exitY=0.95;shadow=0;strokeWidth=1;" edge="1" parent="1">
          <mxGeometry relative="1" as="geometry">
            <mxPoint x="400" y="530" as="targetPoint" />
            <mxPoint x="795" y="530" as="sourcePoint" />
          </mxGeometry>
        </mxCell>
      </root>
    </mxGraphModel>
  </diagram>
</mxfile>
